<mxfile host="app.diagrams.net" modified="2022-11-05T01:11:38.027Z" agent="5.0 (Macintosh; Intel Mac OS X 10_15_7) AppleWebKit/537.36 (KHTML, like Gecko) Chrome/107.0.0.0 Safari/537.36" etag="JXhp_A8HdiPqChM9g2DZ" version="20.4.0" type="github">
  <diagram id="ZICwoTSq5GNGP_JryFaq" name="Page-1">
    <mxGraphModel dx="1470" dy="725" grid="0" gridSize="10" guides="1" tooltips="1" connect="1" arrows="1" fold="1" page="1" pageScale="1" pageWidth="850" pageHeight="1100" math="0" shadow="0">
      <root>
        <mxCell id="0" />
        <mxCell id="1" parent="0" />
        <mxCell id="-iqNd7C8Az60BIsdfVT3-10" value="--" style="edgeStyle=orthogonalEdgeStyle;rounded=0;orthogonalLoop=1;jettySize=auto;html=1;" edge="1" parent="1" source="-iqNd7C8Az60BIsdfVT3-4" target="-iqNd7C8Az60BIsdfVT3-8">
          <mxGeometry relative="1" as="geometry" />
        </mxCell>
        <mxCell id="-iqNd7C8Az60BIsdfVT3-21" value="" style="edgeStyle=orthogonalEdgeStyle;rounded=0;orthogonalLoop=1;jettySize=auto;html=1;" edge="1" parent="1" source="-iqNd7C8Az60BIsdfVT3-4" target="-iqNd7C8Az60BIsdfVT3-19">
          <mxGeometry relative="1" as="geometry" />
        </mxCell>
        <mxCell id="-iqNd7C8Az60BIsdfVT3-4" value="Produce" style="swimlane;childLayout=stackLayout;horizontal=1;startSize=30;horizontalStack=0;rounded=1;fontSize=14;fontStyle=0;strokeWidth=2;resizeParent=0;resizeLast=1;shadow=0;dashed=0;align=center;" vertex="1" parent="1">
          <mxGeometry x="312" y="93" width="160" height="120" as="geometry" />
        </mxCell>
        <mxCell id="-iqNd7C8Az60BIsdfVT3-5" value="Is Vegetable : bool&#xa;is Fruit : bool" style="align=left;strokeColor=none;fillColor=none;spacingLeft=4;fontSize=12;verticalAlign=top;resizable=0;rotatable=0;part=1;" vertex="1" parent="-iqNd7C8Az60BIsdfVT3-4">
          <mxGeometry y="30" width="160" height="90" as="geometry" />
        </mxCell>
        <mxCell id="-iqNd7C8Az60BIsdfVT3-26" value="" style="edgeStyle=orthogonalEdgeStyle;rounded=0;orthogonalLoop=1;jettySize=auto;html=1;exitX=0.5;exitY=1;exitDx=0;exitDy=0;entryX=0.5;entryY=0;entryDx=0;entryDy=0;" edge="1" parent="1" source="-iqNd7C8Az60BIsdfVT3-9" target="-iqNd7C8Az60BIsdfVT3-24">
          <mxGeometry relative="1" as="geometry">
            <mxPoint x="69" y="567" as="targetPoint" />
          </mxGeometry>
        </mxCell>
        <mxCell id="-iqNd7C8Az60BIsdfVT3-8" value="Fruit" style="swimlane;childLayout=stackLayout;horizontal=1;startSize=30;horizontalStack=0;rounded=1;fontSize=14;fontStyle=0;strokeWidth=2;resizeParent=0;resizeLast=1;shadow=0;dashed=0;align=center;" vertex="1" parent="1">
          <mxGeometry x="186" y="359" width="160" height="120" as="geometry" />
        </mxCell>
        <mxCell id="-iqNd7C8Az60BIsdfVT3-9" value="Is Vegetable : bool&#xa;is Fruit : bool" style="align=left;strokeColor=none;fillColor=none;spacingLeft=4;fontSize=12;verticalAlign=top;resizable=0;rotatable=0;part=1;" vertex="1" parent="-iqNd7C8Az60BIsdfVT3-8">
          <mxGeometry y="30" width="160" height="90" as="geometry" />
        </mxCell>
        <mxCell id="-iqNd7C8Az60BIsdfVT3-19" value="Vegetable" style="swimlane;childLayout=stackLayout;horizontal=1;startSize=30;horizontalStack=0;rounded=1;fontSize=14;fontStyle=0;strokeWidth=2;resizeParent=0;resizeLast=1;shadow=0;dashed=0;align=center;" vertex="1" parent="1">
          <mxGeometry x="445" y="350" width="160" height="120" as="geometry" />
        </mxCell>
        <mxCell id="-iqNd7C8Az60BIsdfVT3-20" value="Is Vegetable : bool&#xa;is Fruit : bool" style="align=left;strokeColor=none;fillColor=none;spacingLeft=4;fontSize=12;verticalAlign=top;resizable=0;rotatable=0;part=1;" vertex="1" parent="-iqNd7C8Az60BIsdfVT3-19">
          <mxGeometry y="30" width="160" height="90" as="geometry" />
        </mxCell>
        <mxCell id="-iqNd7C8Az60BIsdfVT3-24" value="APPLE" style="swimlane;childLayout=stackLayout;horizontal=1;startSize=30;horizontalStack=0;rounded=1;fontSize=14;fontStyle=0;strokeWidth=2;resizeParent=0;resizeLast=1;shadow=0;dashed=0;align=center;" vertex="1" parent="1">
          <mxGeometry x="43" y="601" width="160" height="120" as="geometry" />
        </mxCell>
        <mxCell id="-iqNd7C8Az60BIsdfVT3-25" value="Is Vegetable : bool&#xa;is Fruit : bool" style="align=left;strokeColor=none;fillColor=none;spacingLeft=4;fontSize=12;verticalAlign=top;resizable=0;rotatable=0;part=1;" vertex="1" parent="-iqNd7C8Az60BIsdfVT3-24">
          <mxGeometry y="30" width="160" height="90" as="geometry" />
        </mxCell>
      </root>
    </mxGraphModel>
  </diagram>
</mxfile>
